<?xml version='1.0' encoding='iso-8859-1'?>
<svg xmlns="http://www.w3.org/2000/svg" xmlns:xlink="http://www.w3.org/1999/xlink" width="117px" height="117px" viewBox="-12 0 117 117" version="1.1"><title/><desc/><defs/><g fill="none" fill-rule="evenodd" id="Page-1" stroke="none" stroke-width="1"><g fill-rule="nonzero" id="pin"><path d="M46.5,0.4 C21,0.4 0.2,21.2 0.2,46.8 C0.2,49.9 0.5,53 1.1,56 C1.1,56.2 1.2,56.4 1.2,56.7 C6.3,79.6 42.2,114 43.7,115.4 C44.5,116.2 45.5,116.5 46.5,116.5 C47.5,116.5 48.5,116.1 49.3,115.4 C50.8,113.9 86.5,79.6 91.6,57.2 C91.6,57 91.7,56.8 91.7,56.6 C92.4,53.4 92.7,50.1 92.7,46.8 C92.8,21.2 72,0.4 46.5,0.4 Z M83.7,55.1 C83.7,55.3 83.7,55.2 83.7,55.4 C79.9,72 55,98.2 46.5,106.7 C38,98.2 13,72 9.2,55 C9.2,54.8 9.2,54.7 9.1,54.5 C8.6,51.9 8.3,49.3 8.3,46.7 C8.3,25.7 25.4,8.5 46.4,8.5 C67.4,8.5 84.6,25.6 84.6,46.7 C84.6,49.6 84.3,52.4 83.7,55.1 Z" fill="#4A4A4A" id="Shape"/><path d="M46.5,20 C34.2935484,20 24.5,29.9354839 24.5,42 C24.5,54.0645161 34.4354839,64 46.5,64 C58.5645161,64 68.5,54.2064516 68.5,42 C68.5,29.7935484 58.7064516,20 46.5,20 Z M46.5,52.5032258 C40.6806452,52.5032258 35.9967742,47.8193548 35.9967742,42 C35.9967742,36.1806452 40.6806452,31.4967742 46.5,31.4967742 C52.3193548,31.4967742 57.0032258,36.1806452 57.0032258,42 C57.0032258,47.8193548 52.3193548,52.5032258 46.5,52.5032258 Z" fill="#17AB13" id="Shape"/></g></g></svg>
