<?xml version="1.0" encoding="iso-8859-1"?>
<!-- Generator: Adobe Illustrator 19.0.0, SVG Export Plug-In . SVG Version: 6.00 Build 0)  -->
<svg version="1.1" id="Layer_1" xmlns="http://www.w3.org/2000/svg" xmlns:xlink="http://www.w3.org/1999/xlink" x="0px" y="0px"
	 viewBox="0 0 512 512" style="enable-background:new 0 0 512 512;" xml:space="preserve">
<path style="fill:#EAEAEA;" d="M417.392,151.6h-7.584c-7.536-31.728-36.128-55.504-70.336-55.504c-8.304,0-16.72,1.824-23.68,4.16
	c-16.72-47.488-62.032-81.584-115.44-81.584c-67.616,0-122.448,54.544-122.448,121.84c0,4.24,0.224,8.432,0.64,12.544
	C34.112,160.704,0,199.408,0,245.728c0,51.776,42.576,94.144,94.608,94.144h322.784c52.032,0,94.608-42.368,94.608-94.144
	C512,193.968,469.424,151.6,417.392,151.6z"/>
<path style="fill:#333333;" d="M128,365.328H80l64,64l64-64h-48c0-52.8,43.2-96,96-96c16,0,32,4.8,44.8,11.2l24-24
	c-20.8-11.2-43.2-19.2-68.8-19.2C185.6,237.328,128,294.928,128,365.328L128,365.328z M352,365.328c0,52.8-43.2,96-96,96
	c-16,0-32-4.8-44.8-11.2l-24,24c20.8,11.2,43.2,19.2,68.8,19.2c70.4,0,128-57.6,128-128h48l-64-64l-64,64H352L352,365.328z"/>
<g>
</g>
<g>
</g>
<g>
</g>
<g>
</g>
<g>
</g>
<g>
</g>
<g>
</g>
<g>
</g>
<g>
</g>
<g>
</g>
<g>
</g>
<g>
</g>
<g>
</g>
<g>
</g>
<g>
</g>
</svg>
